<?xml version="1.0" standalone="no"?><!DOCTYPE svg PUBLIC "-//W3C//DTD SVG 1.1//EN" "http://www.w3.org/Graphics/SVG/1.1/DTD/svg11.dtd"><svg t="1591618043707" class="icon" viewBox="0 0 4360 1024" version="1.1" xmlns="http://www.w3.org/2000/svg" p-id="2334" xmlns:xlink="http://www.w3.org/1999/xlink" width="851.5625" height="200"><defs><style type="text/css"></style></defs><path d="M10.414921 113.748501l64.677763-82.014216 199.502779 4.724289s152.97697-7.030192 203.439686 94.62638c0.787381 0 0 82.000155 0 82.000155s-49.689395-91.462793-108.827367-94.598259-205.80183 9.462638-205.80183 9.462638v168.7246S38.015454 276.975491 10.414921 113.748501z" fill="#FFFFFF" p-id="2335"></path><path d="M482.548532 98.169596C449.436329-0.590536 297.443586 3.543217 297.443586 3.543217L76.850232 0l-1.82785 2.305903a3.486975 3.486975 0 0 0-0.337449 0.36557L1.345974 92.559503a5.919421 5.919421 0 0 0 9.209551 7.423883l67.082089-82.253243c8.351868-0.112483 82.801597-1.181072 216.234635-1.181072 147.84493 0 178.004453 82.211061 184.51441 88.706958s4.161873-6.495897 4.161873-7.086433z" fill="#FFFFFF" p-id="2336"></path><path d="M480.875346 325.35727l-64.677763 82.000155-199.502778-4.738349s-152.97697 7.030192-203.439686-94.62638c-0.787381 0 0-82.000155 0-82.000155s49.675334 91.462793 108.813306 94.626379 205.80183-9.462638 205.80183-9.462637v-168.7246s125.404559 19.698597 153.005091 182.925587z" fill="#FFFFFF" p-id="2337"></path><path d="M489.030369 338.349064a5.919421 5.919421 0 0 0-8.281566 0.899864l-67.068028 82.239182c-8.351868 0.112483-82.801597 1.181072-216.234635 1.181073-147.84493 0-178.004453-82.211061-184.51441-88.706959s-4.218115 6.509957-4.218115 7.030192c33.112203 98.760132 185.104946 94.62638 185.104946 94.62638l220.593354 3.543216 1.827849-2.305903c0.112483-0.112483 0.253087-0.224966 0.36557-0.36557l73.33896-89.88803a5.919421 5.919421 0 0 0-0.913925-8.253445z" fill="#FFFFFF" p-id="2338"></path><path d="M879.951206 52.698317V2.446507h-31.439017v50.25181H780.670839V2.446507h-32.732572v50.25181h-48.156813v-37.963035h-32.732572v37.963035H632.755607v25.30869h34.321396v155.789047a40.775112 40.775112 0 0 0 9.842268 30.806299 48.80359 48.80359 0 0 0 36.275789 11.979447h199.798047v-25.266509H721.99686a23.902652 23.902652 0 0 1-17.800446-5.624153 20.064167 20.064167 0 0 1-4.316537-15.311758V78.077308H748.05075v128.680628h93.824938a37.133472 37.133472 0 0 0 27.741136-9.954751 47.31319 47.31319 0 0 0 10.474986-35.277502V78.077308h40.311119v-25.308689zM719.929983 254.731964z m-15.860112 17.898868a42.293633 42.293633 0 0 1-2.530869-0.351509c0.815502 0.126543 1.659125 0.267147 2.502748 0.351509z m-3.177647-25.30869c0.224966 0.281208 0.478053 0.520234 0.71708 0.787382l-0.7452-0.815502z m-4.611805-13.976021v0.956106a6.706803 6.706803 0 0 0 0-1.012347z m155.690624-63.581053v-0.7452a4.639926 4.639926 0 0 1 0 0.703019z m0-95.132553zM833.819088 182.65844h-53.134188V78.077308h67.771047v88.580415a16.87246 16.87246 0 0 1-3.079224 12.752768 12.724647 12.724647 0 0 1-9.687604 3.233888h-1.898152z m18.151955-11.388911a2.713654 2.713654 0 0 1-0.084362 0.843623v-0.871744z m-0.239027 2.137178a4.218115 4.218115 0 0 1-0.154664 0.815503c0-0.295268 0.084362-0.576476 0.140604-0.857684z m-0.407751 1.954394a3.360432 3.360432 0 0 1-0.224966 0.787381l0.210906-0.801442z m-0.548355 1.743487l-0.295268 0.73114 0.281208-0.703019z m-0.703019 1.645065l-0.36557 0.660838 0.35151-0.646778z m-0.857683 1.406038l-0.435872 0.590536z m-13.385485 5.919422z m9.842268-2.502749l-0.632717 0.379631z m-1.4904 0.815503l-0.70302 0.309328z m-1.645065 0.660838l-0.773321 0.239026z m-1.743488 0.492113l-0.815502 0.168725z m-1.968453 0.337449l-0.857684 0.098423z m8.197203-3.290129l-0.576476 0.449932z m1.167012-1.152952l-0.506174 0.520234z m-0.801442 21.428024c-0.71708 0-1.406038 0.140604-2.19342 0.196846 0.703019 0 1.406038 0 2.151239-0.140604z m3.993149-0.506173q-0.998287 0.210906-2.038756 0.365569a19.136182 19.136182 0 0 1 2.080937-0.295268z m-215.123865-127.851066z m34.349517 164.169036q-0.112483-2.334024 0-4.822712-0.112483 2.460567 0 4.78053z m0.126543 1.4904a24.366644 24.366644 0 0 0 0.267148 3.022983 53.471638 53.471638 0 0 1-0.267148-3.051104z m0.562416 4.696168c0.140604 0.857683 0.281208 1.743488 0.478053 2.516809a25.139965 25.139965 0 0 1-0.478053-2.54493z m0.927985 4.218115c0.210906 0.7452 0.407751 1.504461 0.646777 2.221541q-0.337449-1.124831-0.632717-2.249662z m1.293555 3.796304c0.281208 0.660838 0.548355 1.406038 0.843623 1.996574-0.295268-0.660838-0.562415-1.406038-0.815502-2.024695z m1.659125 3.486975c0.337449 0.590536 0.660838 1.209193 1.026408 1.743487-0.36557-0.604596-0.674898-1.223253-1.026408-1.813789z m2.024696 3.121405c0.407751 0.534295 0.787381 1.08265 1.223253 1.574763-0.435872-0.576476-0.815502-1.026408-1.223253-1.645065z m2.390265 2.812077c0.449932 0.478053 0.913925 0.942046 1.406038 1.406038l-1.406038-1.406038z m15.339878 8.731498q-1.09671-0.309328-2.151239-0.674899c0.703019 0.168725 1.406038 0.337449 2.151239 0.548355z m-4.02127-1.406039c-0.674898-0.267147-1.321676-0.562415-1.968453-0.857683a17.955109 17.955109 0 0 1 1.954393 0.717079z m-3.66976-1.743487a28.542578 28.542578 0 0 1-1.743487-1.026408c0.534295 0.295268 1.124831 0.646778 1.757548 0.984227z m-3.30419-1.968454c-0.562415-0.37963-1.068589-0.801442-1.588823-1.209193 0.506174 0.35151 1.026408 0.773321 1.588823 1.152952z m29.32996 7.227037z m-16.295985-1.743487c0.773321 0.168725 1.532582 0.36557 2.334024 0.506173l-2.334024-0.562415z m9.50482 1.406038l2.713654 0.168724z m-3.993149-23.902652l0.815502 0.703019-0.843623-0.73114z m1.743487 1.406039l0.942046 0.604596z m2.024695 1.237313l1.054529 0.506174z m2.249662 1.026408l1.152951 0.421812z m2.502748 0.843623l1.237314 0.33745z m2.727714 0.632718l1.406039 0.224966z m2.952681 0.421811l1.406038 0.140604z m-16.577192-8.169083a12.063809 12.063809 0 0 1-0.604597-0.871743 9.251732 9.251732 0 0 1 0.674899 0.815502z m-3.68382-10.221898a5.778818 5.778818 0 0 0 0.168724 1.082649 11.107703 11.107703 0 0 0-0.098423-1.138891z m0.421811 2.643352a3.838485 3.838485 0 0 0 0.281208 1.068589 5.483549 5.483549 0 0 0-0.210906-1.11077z m0.646778 2.446506l0.37963 1.012348a6.383414 6.383414 0 0 0-0.295268-1.082649z m0.871743 2.235601c0.154664 0.337449 0.337449 0.646778 0.506174 0.956106a4.878953 4.878953 0 0 0-0.421811-1.026408zM696.308539 74.576273z m143.41591 128.680628z m26.03983-7.662909l1.279495-1.251374c-0.435872 0.421811-0.843623 0.857683-1.293555 1.251374z m-12.569983 6.397475c0.646778-0.154664 1.279495-0.35151 1.884092-0.548355a17.814506 17.814506 0 0 1-1.912212 0.548355z m3.486975-1.09671c0.590536-0.224966 1.167012-0.478053 1.743488-0.71708a11.656058 11.656058 0 0 1-1.602884 0.71708z m3.29013-1.406039c0.548355-0.281208 1.068589-0.590536 1.574763-0.885804a7.930056 7.930056 0 0 1-1.406038 0.885804z m2.980801-1.743487c0.492113-0.337449 0.956106-0.71708 1.406039-1.08265a7.409822 7.409822 0 0 1-1.293556 1.068589z m5.061738-4.541504c0.37963-0.449932 0.7452-0.956106 1.124831-1.406038a6.805226 6.805226 0 0 1-0.998287 1.406038z m8.351868-26.447581v-5.1461a50.476776 50.476776 0 0 1 0.126543 5.103919z m-6.270931 23.663625c0.35151-0.520234 0.646778-1.08265 0.956106-1.645065a7.69103 7.69103 0 0 1-0.843623 1.645065z m1.743488-3.107345c0.295268-0.590536 0.548355-1.223253 0.815502-1.827849a7.156735 7.156735 0 0 1-0.646778 1.827849z m1.4904-3.486975c0.239027-0.660838 0.449932-1.406038 0.660838-2.066876a6.931769 6.931769 0 0 1-0.492113 2.109057z m1.181072-3.768182c0.196845-0.7452 0.35151-1.532582 0.506174-2.319964a8.619015 8.619015 0 0 1-0.337449 2.362145z m0.885805-4.105632c0.154664-0.857683 0.239027-1.743488 0.36557-2.657413a8.604955 8.604955 0 0 1-0.196846 2.685533z m0.590536-4.457142c0.098423-1.012348 0.140604-2.094997 0.210905-3.177646a16.352226 16.352226 0 0 1 0 3.219827z m40.943836-96.876041z" fill="#FFFFFF" p-id="2339"></path><path d="M1034.516999 58.814583h-2.376204l-0.871744 2.137179a282.82461 282.82461 0 0 1-15.944475 33.337168h-1.237313c-11.023341 1.054529-20.795307 1.574763-29.076873 1.574763h-4.38684a296.308518 296.308518 0 0 0 51.053252-89.986453l1.743488-4.696168h-33.309048l-0.787382 2.404326a305.349344 305.349344 0 0 1-50.898588 93.304703l-0.7452 0.942046V120.919296h3.486975c22.707519 0 38.722296-0.239027 48.339598-0.717079a409.424301 409.424301 0 0 1-44.74014 54.835495l-0.984226 1.012347v23.283995h3.486975a588.581706 588.581706 0 0 0 96.187082-7.367641l2.910499-0.492113v-24.479127l-4.218115 0.843623a348.008547 348.008547 0 0 1-61.753203 5.989723 345.252712 345.252712 0 0 0 71.778256-110.275586l2.038756-4.850833h-29.69553z m-26.546003 39.650281l1.406038-0.098422z m-5.244523 0.379631z m-5.047678 0.295268z m-5.975663 0.239026z m-4.499322 0z m-5.244523 0z m-8.590895-0.37963q4.218115-4.75241 8.43623-9.842268-4.218115 5.11798-8.43623 9.842268z m4.457142 0.36557z m45.091649-80.833144q2.812077-6.763044 5.427308-13.821357-2.57305 7.030192-5.399187 13.793236z m-13.258941 28.036405l2.22154-4.218115q-1.040468 2.109057-2.179359 4.218115zM986.964783 117.122993q-6.903648 0.154664-15.860112 0.224966 8.956464 0 15.860112-0.224966 13.779176-0.295268 19.304906-0.927985-5.455429 0.576476-19.234604 0.885804z m-29.695529 78.738146a597.9178 597.9178 0 0 0 84.474782-5.722576 597.861559 597.861559 0 0 1-84.446662 5.708516z m61.865686-19.853261l1.490401-0.140604z m16.731856-1.743487l2.137179-0.295268z m-54.146536 3.30419q8.956464-8.43623 17.280211-17.870747-8.225324 9.279853-17.209909 17.758264z m40.311119-47.256949c-2.305903 3.31825-4.639926 6.622441-7.030192 9.842269 2.404326-3.30419 4.682108-6.580259 7.030192-9.926631z m25.238388-42.602961q-4.105632 8.155022-8.43623 15.930414t-9.083007 15.157094q4.682108-7.381701 9.083007-15.157094t8.43623-15.930414q6.172508-12.232533 11.684179-25.30869-5.469489 12.991794-11.613877 25.238388z" fill="#FFFFFF" p-id="2340"></path><path d="M966.970918 238.618765c-5.624153 0-11.248307-0.126543-16.87246-0.37963l-3.6557-0.154665v25.533657h3.486975a444.308112 444.308112 0 0 0 107.46351-12.330957l2.643352-0.660838v-24.465067l-4.386839 1.152952a350.103544 350.103544 0 0 1-88.678838 11.304548z m-6.720863 3.486975z m-2.446507 0c-2.601171 0-5.244523-0.140604-7.803513-0.267147 2.601171 0 5.174221 0.084362 7.803513 0.140604z m10.193778 0.098423c3.374492 0 6.720863 0 10.067234-0.154664h-10.067234z m11.37485-0.210906q4.836772-0.154664 9.645423-0.449932l-9.645423 0.337449z m10.840556-0.520234q4.977376-0.309328 9.940691-0.787382c-3.30419 0.196845-6.566199 0.449932-9.940691 0.674899z m11.909144-0.956106q4.907074-0.478053 9.842269-1.08265l-9.842269 0.956106z m11.34673-1.293555q4.822711-0.632717 9.603241-1.406039-4.78053 0.646778-9.603241 1.209193z m10.306261-1.490401c3.30419-0.520234 6.566199-1.11077 9.842268-1.743488-3.29013 0.506174-6.552139 1.09671-9.842268 1.631005z m11.712299-2.179359q4.78053-0.942046 9.53294-2.010635-4.808651 1.040468-9.575121 2.010635z m21.090575-4.822712c-3.29013 0.857683-6.566199 1.659125-9.842268 2.404326 3.191707-0.759261 6.538078-1.546642 9.828207-2.404326z" fill="#FFFFFF" p-id="2341"></path><path d="M1210.806085 215.70034h-3.486975v19.614235a17.702023 17.702023 0 0 1-3.740062 13.483908 21.442085 21.442085 0 0 1-15.930414 4.963315H1123.884796a16.14132 16.14132 0 0 1-18.658129-19.684537V139.338399h66.280647c1.743488 0.084362 3.402613 0.140604 5.019557 0.140603a42.813867 42.813867 0 0 0 32.338881-11.135823 40.775112 40.775112 0 0 0 9.097068-31.804587V17.153668h-150.446101v24.155738h118.880541V94.345172a20.992152 20.992152 0 0 1-4.316538 15.874173 20.710945 20.710945 0 0 1-15.466421 5.033617h-94.204569v121.04584a40.325179 40.325179 0 0 0 9.603242 30.44073 44.290207 44.290207 0 0 0 33.027841 11.121763h77.514893a46.244601 46.244601 0 0 0 34.405758-11.37485 38.314545 38.314545 0 0 0 9.307974-28.992511v-21.793594z m0 23.016848v-0.857684a4.597745 4.597745 0 0 1 0 0.857684z m-2.812076 34.040188q-1.068589 0.267147-2.19342 0.478053c0.73114-0.126543 1.406038-0.295268 2.179359-0.449933z m-1.898152-21.554568l0.632717-0.674898-0.646777 0.703019z m5.86318 20.415677a38.047397 38.047397 0 0 1-0.014061 0.02812z m-4.555564-22.046681c0.168725-0.239027 0.36557-0.506174 0.520234-0.773321-0.210906 0.35151-0.323389 0.590536-0.492114 0.787381z m1.096709-1.743488l0.435872-0.815502a6.875527 6.875527 0 0 1-0.407751 0.815502z m0.885805-1.954393l0.337449-0.885804a4.724289 4.724289 0 0 0-0.295268 0.927985z m0.674898-2.151239a5.033617 5.033617 0 0 1 0.239027-0.942045c0 0.36557-0.154664 0.660838-0.224967 0.984226z m0.478053-2.376205a8.928343 8.928343 0 0 1 0.140604-0.942045 9.743846 9.743846 0 0 1-0.126544 0.984227z m-7.030192 11.909145l-0.815502 0.520234z m1.645065-1.293555l-0.73114 0.604596z m-83.068744 5.244523z m65.788533 0z m13.765115-2.812077l-0.913924 0.449932z m-2.052816 0.927985l-1.012347 0.36557z m-2.277782 0.73114l-1.09671 0.281208z m-2.474627 0.562416l-1.181072 0.210905z m-2.713654 0.37963l-1.279495 0.126543z m-82.956262-3.374492l-0.801441-0.576476z m11.248307 3.486975l-1.223253-0.126543z m-2.657412-0.309328l-1.026408-0.224966z m-2.460567-0.506174l-1.08265-0.295268z m-2.249662-0.703019l-0.998287-0.407751z m-2.066876-0.885804l-0.913925-0.492114z m55.890024-135.963907z m-65.394843 118.10722v0.913925a2.066876 2.066876 0 0 0 0.084362-0.913925z m0.660838 36.402332c-0.73114-0.140604-1.406038-0.309328-2.165299-0.492113 0.801442 0.168725 1.518521 0.35151 2.249661 0.492113z m4.358719 0.674899a38.314545 38.314545 0 0 1-2.319964-0.33745c0.857683 0.140604 1.631004 0.239027 2.404326 0.35151z m-4.878953-34.391698a6.439656 6.439656 0 0 0 0.140603 1.012348 4.977376 4.977376 0 0 0 0-0.998288z m0.351509 2.516809a5.033617 5.033617 0 0 0 0.224966 1.012347 4.218115 4.218115 0 0 0-0.140604-0.998287z m0.562416 2.319963c0.098423 0.337449 0.224966 0.646778 0.337449 0.956106a3.458854 3.458854 0 0 0-0.239027-0.942046z m0.7452 2.137178c0.126543 0.309328 0.281208 0.604596 0.421811 0.913925a4.007209 4.007209 0 0 0-0.309328-0.913925z m0.956106 1.940333c0.154664 0.281208 0.35151 0.562415 0.520234 0.815502a6.411535 6.411535 0 0 0-0.435872-0.815502z m1.152951 1.743488a8.717438 8.717438 0 0 0 0.632718 0.7452 6.003784 6.003784 0 0 0-0.520235-0.7452z m1.406039 1.560702l0.717079 0.660838z m63.187362-133.095588l1.293555-0.140604z m1.518522 17.25209c1.743488 0.098423 3.486975 0.140604 5.244523 0.126543h-0.281208a41.885882 41.885882 0 0 1-4.808651-0.182785z m14.833704-0.576476c-0.857683 0.126543-1.743488 0.210906-2.657412 0.309329 0.885804-0.084362 1.799729-0.168725 2.657412-0.295268z m-2.812077-21.709232c0.239027-0.224966 0.506174-0.435872 0.73114-0.674898l-0.73114 0.703019z m6.284992-15.466421v-0.942046a5.947542 5.947542 0 0 1 0 0.956106z m0.73114 36.275789c-0.773321 0.196845-1.574763 0.337449-2.376205 0.492113 0.801442-0.140604 1.602884-0.281208 2.376205-0.478053z m-11.923205 1.406038a24.268222 24.268222 0 0 0 3.008922-0.126543c-0.984227 0.084362-2.052816 0.126543-3.008922 0.140603z m13.722934-1.968454a61.387634 61.387634 0 0 0 0 0.014061z m3.810364-1.321676c0.646778-0.267147 1.293555-0.548355 1.898151-0.843623a10.573408 10.573408 0 0 1-1.898151 0.801442z m3.486975-1.645064c0.576476-0.309328 1.152951-0.660838 1.743487-1.012348l-1.813789 1.054529z m3.079224-1.968454q0.773321-0.576476 1.504461-1.181072l-1.574763 1.279495z m2.713654-2.291843a13.821357 13.821357 0 0 0 1.293555-1.406038l-1.406039 1.406038z m2.362144-2.615231l1.124831-1.560702-1.167012 1.574763z m6.650561-20.964031a19.150242 19.150242 0 0 1-0.154664 3.022982c0-0.998287 0-2.024695 0.084362-3.051103z m-0.37963 4.752409c-0.112483 0.857683-0.210906 1.743488-0.36557 2.516809l0.295268-2.54493z m-0.7452 4.218115a33.74492 33.74492 0 0 1-0.562416 2.20748 39.509677 39.509677 0 0 1 0.492114-2.235601z m-1.110771 3.838485a40.114274 40.114274 0 0 1-0.73114 1.954393c0.196845-0.660838 0.435872-1.321676 0.660838-1.996574z m-1.406038 3.486975c-0.295268 0.590536-0.590536 1.181072-0.927985 1.743487 0.267147-0.604596 0.562415-1.209193 0.857683-1.799729z m3.768183-17.912928q0-2.334024-0.126544-4.836772 0.253087 2.57305 0.253087 4.921134zM1071.017755 37.738069h118.88054V94.204568 37.808371z m115.970041 71.609532c-0.168725 0.295268-0.35151 0.562415-0.534295 0.843623 0.295268-0.196845 0.449932-0.520234 0.660838-0.773321z m2.812077-9.364215a10.26408 10.26408 0 0 1-0.140604 1.054528c0-0.337449 0.112483-0.674898 0.140604-1.026408z m-0.379631 2.643352a4.218115 4.218115 0 0 1-0.239026 1.026408l0.239026-1.012348z m-0.590536 2.446506c-0.098423 0.337449-0.224966 0.660838-0.337449 0.998288a13.56827 13.56827 0 0 0 0.337449-0.984227z m-0.801442 2.235601l-0.435872 0.927986a13.821357 13.821357 0 0 0 0.449933-0.913925z m-2.812076 4.625866a11.599816 11.599816 0 0 0 0.632717-0.773321 3.262009 3.262009 0 0 1-0.632717 0.787382z m-2.446507 2.305903l-0.815502 0.590536z m-9.842268 3.950968l1.209193-0.224966z m2.58711-0.548355l1.124831-0.309328z m2.376205-0.73114l1.026408-0.407751z m2.165299-0.942046l0.927985-0.506173z m-15.719508 2.643353z m-88.214845 122.325334q-0.084362-2.263722 0-4.682107-0.126543 2.516809 0 4.76647z m6.003783 20.064167c0.36557 0.520234 0.71708 1.054529 1.124831 1.532582a9.645423 9.645423 0 0 1-1.138891-1.406038z m-5.905361-18.658128a23.382417 23.382417 0 0 0 0.239027 2.95268c-0.140604-0.857683-0.196845-1.855971-0.267147-2.812077z m0.506174 4.555564c0.140604 0.815502 0.239027 1.743488 0.421812 2.460567a15.297697 15.297697 0 0 1-0.407751-2.376205z m0.843623 4.04939c0.196845 0.73114 0.36557 1.406038 0.590536 2.165299a18.278498 18.278498 0 0 1-0.604596-2.080936z m1.181072 3.683821c0.239027 0.646778 0.492113 1.307616 0.773321 1.926272a13.905719 13.905719 0 0 1-0.787381-1.82785z m1.518522 3.33231c0.309328 0.576476 0.604596 1.167012 0.942045 1.743488a12.654345 12.654345 0 0 1-0.984226-1.659125z m4.03533 5.722576l1.293555 1.406039a8.745558 8.745558 0 0 1-1.307616-1.237314z m14.060383 8.43623a33.280927 33.280927 0 0 1-1.996574-0.660838c0.632717 0.337449 1.293555 0.562415 1.968453 0.843623z m-3.697881-1.307615a25.871105 25.871105 0 0 1-1.743487-0.815502 7.775392 7.775392 0 0 0 1.729427 0.927985z m-3.374492-1.602884c-0.576476-0.309328-1.09671-0.660838-1.645065-0.998287a9.18143 9.18143 0 0 0 1.631005 1.09671z m-3.037043-1.926272a13.174579 13.174579 0 0 1-1.406038-1.167012 5.961603 5.961603 0 0 0 1.406038 1.279495z m29.526805 7.030191z m-8.731498-0.239026l2.502749 0.168724z m81.05811 0.239026z m13.680753-0.7452a42.617022 42.617022 0 0 1-2.390265 0.309328 17.912928 17.912928 0 0 0 2.376205-0.224966z m-4.752409 0.520234l-2.573051 0.154664z m24.071376-8.731498c0.449932-0.407751 0.871744-0.843623 1.307615-1.279495a6.284991 6.284991 0 0 1-1.237313 1.406039z m-9.336095 5.553852c0.632717-0.239027 1.237314-0.520234 1.82785-0.787382a5.624153 5.624153 0 0 1-1.757548 0.942046z m3.486975-1.560703c0.576476-0.295268 1.124831-0.632717 1.659126-0.942046a8.281566 8.281566 0 0 1-1.631005 1.09671z m3.107345-1.855971c0.506174-0.35151 0.998287-0.73114 1.490401-1.11077a6.524018 6.524018 0 0 1-1.406039 1.279495z m12.569983-29.934556v4.443081q0.126543-1.996574 0-4.218115z m-0.140604 5.891301a20.584401 20.584401 0 0 1-0.239027 2.812077 21.807655 21.807655 0 0 0 0.281208-2.643352z m-0.520234 4.38684c-0.140604 0.787381-0.267147 1.574763-0.435872 2.319963a6.495897 6.495897 0 0 0 0.37963-2.17936z m-0.871744 3.908786c-0.196845 0.674898-0.36557 1.406038-0.618657 2.038756a11.00928 11.00928 0 0 0 0.632717-1.884092z m-1.223253 3.486975a13.596391 13.596391 0 0 1-0.787382 1.743488 5.624153 5.624153 0 0 0 0.801442-1.518522z m-1.574763 3.233888c-0.309328 0.548355-0.604596 1.09671-0.956106 1.631005a4.949255 4.949255 0 0 0 0.998287-1.406039z m-1.898152 2.9105c-0.36557 0.492113-0.73114 0.984227-1.138891 1.406038a4.105632 4.105632 0 0 0 1.152951-1.223253z" fill="#FFFFFF" p-id="2342"></path><path d="M1410.393226 248.868784v-97.269731h83.504617a33.74492 33.74492 0 0 0 37.836491-39.144107V11.023341H1378.883907v277.973777l4.597746-1.532581a462.853758 462.853758 0 0 0 70.400339-30.932844l1.855971-0.984226v-26.152313l-5.11798 2.727714a231.855721 231.855721 0 0 1-40.226757 16.745916z m24.56349-5.399187q-5.708516 2.502748-11.332669 4.597746 5.610093-2.123118 11.318609-4.597746z m-24.56349-173.603552V35.179079h91.069103v34.686966z m75.096508 58.842704h-75.096508V92.784469h91.069103v17.336453c0 16.50689-7.578547 18.630008-14.200987 18.630008h-1.715367z m19.318966-15.817931V112.876757z m-0.224966 2.57305a5.624153 5.624153 0 0 1-0.140604 0.942045 4.76647 4.76647 0 0 0 0.196846-0.956106z m-0.36557 2.376204a4.541504 4.541504 0 0 1-0.210906 0.942046 4.02127 4.02127 0 0 0 0.267148-0.942046z m-0.506174 2.207481a3.346371 3.346371 0 0 1-0.281207 0.885804c0.084362-0.295268 0.239027-0.576476 0.323388-0.885804z m-0.660838 2.024695a7.114554 7.114554 0 0 1-0.351509 0.815502 5.539791 5.539791 0 0 0 0.407751-0.787381z m-0.7452 1.785669l-0.421811 0.7452a3.107345 3.107345 0 0 0 0.407751-0.773321z m-14.805584 8.351867z m8.590895-1.898152l-0.745201 0.36557z m-1.743488 0.745201l-0.801442 0.281207z m-1.743487 0.562415l-0.857684 0.196845z m-1.996575 0.37963l-0.899864 0.126544z m8.43623-3.69788l-0.604596 0.520234z m-1.406038 1.09671l-0.674899 0.435871z m3.740062-3.880666l-0.492114 0.674898z m-1.09671 1.406038l-0.548355 0.604597z m3.022982 20.387556l-2.052816 0.295268z m1.743488-115.702894z m-13.56827 116.476215z m7.831633-0.210906l-2.22154 0.154664z m5.792878-0.843623a53.288853 53.288853 0 0 0 1.884092-0.449932l-1.898152 0.449932z m3.486975-0.927985l1.743488-0.604597c-0.520234 0.210906-1.09671 0.421811-1.687246 0.604597z m3.262009-1.223253c0.534295-0.239027 1.068589-0.492113 1.574763-0.773322-0.449932 0.267147-0.984227 0.520234-1.518521 0.773322z m2.966741-1.504461c0.492113-0.281208 0.956106-0.590536 1.406038-0.913925a15.649207 15.649207 0 0 0-1.406038 0.913925z m2.671473-1.743488c0.435872-0.337449 0.857683-0.703019 1.251374-1.068589a9.968812 9.968812 0 0 1-1.251374 1.012347z m2.376205-2.080937c0.37963-0.37963 0.7452-0.801442 1.11077-1.223253a19.333027 19.333027 0 0 1-1.068589 1.181072z m2.080936-2.362144c0.337449-0.435872 0.646778-0.927985 0.956107-1.406038l-0.913925 1.406038z m6.22875-20.218831v-4.218115q0.126543 2.151239 0 4.218115z m-4.457141 17.575479a18.362861 18.362861 0 0 0 0.056241-0.056242z m1.4904-2.93862c0.239027-0.562415 0.449932-1.152951 0.660838-1.743488a27.347446 27.347446 0 0 1-0.604596 1.673186z m1.181073-3.233888c0.196845-0.632717 0.35151-1.307616 0.506173-1.968454a17.392694 17.392694 0 0 1-0.478053 1.926272z m0.885804-3.486975c0.140604-0.71708 0.239027-1.490401 0.351509-2.235601a16.661554 16.661554 0 0 1-0.309328 2.151238z m0.590536-3.810364c0.112483-0.857683 0.140604-1.743488 0.196845-2.671473 0 0.815502-0.098423 1.729427-0.098422 2.601171z m-75.687043 132.476931q-18.390981 9.842268-35.853978 17.462996-13.104277 5.750697-25.67426 10.292201-4.218115 1.518521-8.337807 2.896439 4.133753-1.406038 8.337807-2.896439 12.569983-4.541504 25.67426-10.292201 17.462996-7.662909 35.853978-17.462996v-18.433162z" fill="#FFFFFF" p-id="2343"></path><path d="M1322.48771 29.414322a242.218223 242.218223 0 0 0 7.030192-25.125905l0.984226-4.218115h-30.750058l-0.36557 3.093284a77.02278 77.02278 0 0 1-37.569344 59.925354l-1.743488 1.012347v21.906078l4.836772-2.010635a117.938495 117.938495 0 0 0 45.654065-31.593681h57.000794v-22.918425z m-4.921134 3.486975q1.223253-3.374492 2.376205-6.903648-1.152951 3.529156-2.376205 6.903648z m-25.154026 31.678044q-2.727714 2.038756-5.624153 3.979088t-6.158448 3.754122a147.043489 147.043489 0 0 1-17.069306 8.365928 146.945066 146.945066 0 0 0 17.069306-8.365928q3.149526-1.743488 6.088146-3.754122t5.624153-3.979088a100.067748 100.067748 0 0 0 7.719151-6.411535q-3.6557 3.402613-7.648849 6.411535z" fill="#FFFFFF" p-id="2344"></path><path d="M1329.588203 155.550021V112.286221h30.637576V89.353736h-90.309842v22.918425h28.120766v43.263799h-36.669479v24.141678h36.68354v106.858913l4.696168-1.743487a302.62163 302.62163 0 0 0 63.271725-31.017206l1.560702-1.026408V226.372171l-5.244523 3.177647a231.124581 231.124581 0 0 1-32.690391 16.281924v-66.182225h37.963035V155.507839z m-3.543216-46.792956z m-52.698317 0h28.120767v50.25181-50.25181z m-8.534652 67.391417v-17.153668 17.153668h36.68354v105.452875-105.452875z m73.113993 69.866045q-5.86318 2.615231-11.838843 4.836772c3.950968-1.406038 7.887875-3.051103 11.810722-4.780531z m8.956464-4.091572l-3.796304 1.743488z m17.125547-65.67605z" fill="#FFFFFF" p-id="2345"></path><path d="M1496.077202 225.865997a96.130841 96.130841 0 0 0 52.867041-60.304984l1.532582-4.597745h-30.637575l-0.815502 2.362144a79.342743 79.342743 0 0 1-37.372499 44.430812 203.94586 203.94586 0 0 1-19.79702-44.515174l-0.801442-2.362144h-30.272005l1.167012 4.4009c15.719509 58.913006 55.679118 99.730299 118.669635 121.284866l4.625866 1.588823v-23.12933l-2.109057-0.913925a151.992744 151.992744 0 0 1-57.057036-38.244243z m-3.486975-2.319963l0 0z m28.036404-18.151955l0.33745-0.295268z m-9.842268 8.07066q2.362144-1.743488 4.597745-3.486975-2.235601 1.799729-4.682107 3.486975z m31.607742-40.634507q-0.956106 2.291842-1.996575 4.485262 1.026408-2.20748 1.982514-4.485262z m-20.078228-8.43623a85.402768 85.402768 0 0 1-11.0374 21.681111 85.374647 85.374647 0 0 0 11.02334-21.681111z m-13.357364 24.858757a74.379428 74.379428 0 0 1-5.244523 5.975663q2.783956-2.896439 5.300765-6.003783z m-11.037401 11.459213q-3.051103 2.615231-6.425595 4.977375 3.30419-2.376205 6.355294-4.991436z m-33.323108-19.965745q-2.910499-7.437943-5.975663-16.324105 3.008922 8.872102 5.919421 16.310045z m5.624153 13.413606c-0.787381-1.743488-1.574763-3.486975-2.376204-5.357006 0.7452 1.855971 1.532582 3.6557 2.319963 5.342946z m-21.399903 5.708516q-2.404326-4.682108-4.541504-9.589182a200.64167 200.64167 0 0 1-2.812077-6.875527c0.885804 2.319963 1.743488 4.625866 2.812077 6.875527q2.123118 4.907074 4.541504 9.589182t5.103919 9.153309q-2.812077-4.499323-5.1461-9.18143z m-12.429379-31.579621l0.956106 3.177646q-0.534295-1.602884-1.012347-3.219827z m23.157451 49.450368q2.95268 4.218115 6.186569 8.295626-3.262009-4.063451-6.22875-8.309687z m40.775112 40.268938q-6.692742-4.611806-12.766828-9.687604a156.857636 156.857636 0 0 1-11.529514-10.657771 156.857636 156.857636 0 0 0 11.529514 10.657771q6.074086 5.075798 12.766828 9.687604a210.104308 210.104308 0 0 0 51.404761 25.30869 210.090247 210.090247 0 0 1-51.446942-25.30869z" fill="#FFFFFF" p-id="2346"></path><path d="M1866.708906 254.844447h-177.667003c-29.076873-0.787381-43.65749-14.060383-44.346449-40.676689V94.28893h-62.146894v24.141679h30.637575v100.855129a42.687324 42.687324 0 0 1-29.69553 44.444872l-2.165299 0.885804v21.568628l4.372779-1.138891a77.332108 77.332108 0 0 0 45.82279-28.97845 65.619809 65.619809 0 0 0 55.158883 23.016847H1870.069338v-24.254161z m-192.444466 19.951684l-2.376205-0.337449z m-4.4009-0.660838l-2.263722-0.435872z m-4.218115-0.871743l-2.165299-0.562416z m-4.03533-1.08265l-2.080937-0.660838z m-3.838485-1.293555l-1.968453-0.787382z m-3.66976-1.504461l-1.884091-0.913925c0.674898 0.309328 1.223253 0.604596 1.813789 0.913925z m-3.486975-1.743488a24.844697 24.844697 0 0 1-1.743487-1.026408 19.782959 19.782959 0 0 0 1.757547 1.068589z m-3.30419-1.926272c-0.590536-0.36557-1.152951-0.773321-1.743487-1.152952 0.604596 0.407751 1.167012 0.801442 1.757547 1.167012z m-3.107345-2.137179c-0.562415-0.421811-1.09671-0.857683-1.645065-1.293555l1.616945 1.307616z m-2.93862-2.334023l-1.574763-1.406039a17.280211 17.280211 0 0 0 1.588824 1.406039z m-55.243246-146.284228z m27.684895 124.546875a42.082727 42.082727 0 0 1-2.530869 5.624154 42.18115 42.18115 0 0 0 2.544929-5.624154z m2.080937-7.578546a47.088224 47.088224 0 0 1-1.406039 5.820998 46.821076 46.821076 0 0 0 1.476341-5.820998z m-25.758623 32.591968q-1.490401 0.7452-3.037042 1.406038 1.616944-0.703019 3.022982-1.434159z m-5.244523 2.432446v14.707161z m46.58205-17.153667a58.67398 58.67398 0 0 1-3.68382 5.624153 58.68804 58.68804 0 0 0 3.726002-5.624153z m0 0q1.026408 1.631004 2.165299 3.149526-1.068589-1.490401-2.094997-3.107345z m2.952681 4.218115c0.520234 0.660838 1.026408 1.406038 1.574763 1.968453-0.449932-0.604596-0.984227-1.279495-1.504461-1.940332z m2.601171 3.093284c0.506174 0.562415 1.012348 1.11077 1.532582 1.645065a54.483985 54.483985 0 0 1-1.406039-1.602884z m39.369073 17.98323l2.488688 0.210906z m4.668047 0.35151l2.587111 0.084362z m5.624154 0.154664z" fill="#FFFFFF" p-id="2347"></path><path d="M1797.953632 36.402332a190.166684 190.166684 0 0 1-38.52545 23.08715 279.478239 279.478239 0 0 0-30.623515-20.964032l-0.829563-0.492113h-42.645143l10.474986 6.467776a350.68002 350.68002 0 0 1 38.947262 27.853619h-62.653068v171.157046h31.439017v-50.237749h43.263799v46.58205h31.439017v-46.58205h43.2638v13.891659a15.677327 15.677327 0 0 1-2.812077 11.824782 11.459212 11.459212 0 0 1-8.731498 2.910499h-15.466422v21.709232h19.318967c1.532582 0.098423 3.037043 0.140604 4.471202 0.140604a34.208913 34.208913 0 0 0 26.194494-9.434517 40.3533 40.3533 0 0 0 8.43623-31.073447V72.312551h-63.595114a325.624417 325.624417 0 0 0 60.965822-36.68354l1.406039-1.054528V14.707161h-183.347399v21.695171z m-19.684537 84.938776V93.993662h43.2638v27.291204z m0 50.25181v-28.542578h43.2638v28.556638z m44.360509 68.431885c-0.913925 0-1.870031 0.084362-2.812076 0.126544 0.956106 0 1.926273 0 2.812076-0.126544z m-1.532581-18.419102l0.478053-0.492113z m3.979088-11.613876v-0.71708 0.703019z m1.406038 29.526805c-0.7452 0.126543-1.546642 0.210906-2.334023 0.295268 0.787381-0.098423 1.645065-0.196845 2.334023-0.309329z m-4.386839-19.122122l0.407751-0.562415z m0.857683-1.321676a6.777105 6.777105 0 0 0 0.337449-0.632717c-0.098423 0.210906-0.224966 0.407751-0.337449 0.604597z m0.71708-1.4904l0.281207-0.674899-0.281207 0.660838z m0.576476-1.645065a2.812077 2.812077 0 0 1 0.210905-0.73114l-0.224966 0.73114z m0.421811-1.743488a6.017844 6.017844 0 0 1 0.140604-0.773321c0 0.196845-0.098423 0.435872-0.140604 0.703019z m0.281208-1.996574v-0.787382a2.615231 2.615231 0 0 1 0 0.73114z m-78.175731-118.10722v27.333385h-43.235679V93.993662z m0 49.028557v28.556638h-43.235679v-28.641001z m5.863179-84.3623c2.151239 1.631004 4.218115 3.247949 6.200629 4.878953a127.865126 127.865126 0 0 0-6.214689-4.949255z m-55.060461-17.181789q6.425595 3.979088 12.555923 8.126902c2.615231 1.743488 5.244523 3.486975 7.70509 5.357006-2.530869-1.743488-5.075798-3.599458-7.70509-5.357006q-6.144388-4.218115-12.569983-8.211264z m-21.990439 198.462311V75.855768z m24.451006-50.25181z m74.773119 0z m44.458932 33.294988l-0.576476 0.365569z m1.237314-0.927986l-0.520235 0.435872z m-10.474986 3.247949z m7.831634-1.560703l-0.646778 0.295268z m-1.532582 0.604597l-0.688959 0.224966z m-1.743488 0.449932l-0.73114 0.154664z m-1.870031 0.309328z m-4.907074 0.098423z m-9.842268 14.707161v-14.67904z m15.930414 0c1.532582 0.098423 3.022982 0.140604 4.471202 0.140604h-0.126543q-2.038756 0-4.218115-0.140604z m26.096072-6.355293c0.435872-0.36557 0.857683-0.73114 1.265434-1.110771a12.654345 12.654345 0 0 1-1.209193 1.110771z m-12.063809 5.539791c0.703019-0.140604 1.406038-0.281208 2.038756-0.478053a15.803871 15.803871 0 0 1-1.996575 0.492113z m3.486975-0.927986a18.180076 18.180076 0 0 0 1.743488-0.632717 10.531227 10.531227 0 0 1-1.673186 0.646778z m3.163586-1.237313c0.548355-0.239027 1.08265-0.506174 1.602884-0.787382a11.431092 11.431092 0 0 1-1.532582 0.801442z m2.812077-1.532582a27.277144 27.277144 0 0 0 1.406038-0.956106 13.694813 13.694813 0 0 1-1.406038 0.984227z m6.734924-6.467776c0.337449-0.478053 0.632717-0.956106 0.927985-1.406039a9.378276 9.378276 0 0 1-0.857684 1.490401z m-1.940333 2.460567q0.562415-0.632717 1.082649-1.293556a14.257229 14.257229 0 0 1-1.026408 1.307616z m3.599458-5.244523c0.281208-0.548355 0.520234-1.09671 0.773321-1.659125a18.925276 18.925276 0 0 1-0.71708 1.687246z m1.406038-3.079224c0.224966-0.590536 0.421811-1.223253 0.604597-1.870031a13.540149 13.540149 0 0 1-0.562416 1.898152z m1.040468-3.374492c0.182785-0.674898 0.309328-1.406038 0.435872-2.094997a18.433163 18.433163 0 0 1-0.37963 2.165299z m0.759261-3.683821c0.126543-0.773321 0.196845-1.574763 0.281208-2.376204a19.515812 19.515812 0 0 1-0.224966 2.390265z m0.449932-3.979088a26.517883 26.517883 0 0 1 0.098423-2.812077 26.517883 26.517883 0 0 1-0.098423 2.812077z m0.154665-4.302477c0-1.490401 0-3.022982-0.140604-4.611806 0.140604 1.602884 0.196845 3.149526 0.196845 4.625866z" fill="#FFFFFF" p-id="2348"></path><path d="M1622.719075 70.301917l0.520234 2.812076h30.426669l-0.801442-4.218115a183.347398 183.347398 0 0 0-24.97124-62.470283l-1.026408-1.645065h-27.024057l2.305903 4.963316A258.233 258.233 0 0 1 1622.719075 70.301917z m3.486975-0.632718q-1.223253-6.734924-3.149526-13.976021t-4.527444-14.861825c-2.812077-8.43623-6.411535-17.336453-10.474985-26.714728 4.119692 9.293913 7.662909 18.194136 10.474985 26.714728q2.601171 7.662909 4.527444 14.861825t3.219828 13.976021z m-1.223254-61.289211q2.305903 3.68382 4.4009 7.381702-2.094997-3.711941-4.386839-7.381702z" fill="#FFFFFF" p-id="2349"></path><path d="M655.477186 419.28063v-9.293913a53.021705 53.021705 0 0 0 46.399265 22.412251q29.934556-0.421811 30.932844-18.601887 0.506174-16.071018-32.521667-19.44551-42.335814-4.639926-41.309406-25.30869 1.560703-23.241814 39.748703-24.099497 37.161593-0.421811 43.362222 26.194494h-11.248306a30.595394 30.595394 0 0 0-31.439017-19.881382q-26.841272 0.421811-27.937982 17.758264-1.560703 13.976021 30.932843 17.322392 43.362222 5.919421 42.856049 27.052178-1.054529 24.95718-42.335814 25.308689a55.552574 55.552574 0 0 1-47.439734-19.417389z" fill="#FFFFFF" p-id="2350"></path><path d="M763.221904 437.038894v-90.816016h11.346729v40.592327h66.083801v-40.662628h11.881024v90.816015h-11.881024v-43.854335h-66.083801v43.980879z" fill="#FFFFFF" p-id="2351"></path><path d="M873.680275 437.038894v-90.816016h11.346729v90.816016z" fill="#FFFFFF" p-id="2352"></path><path d="M949.80319 425.621863v-8.43623a36.978808 36.978808 0 0 0 30.45479 15.213335 20.106348 20.106348 0 0 0 23.747988-23.241814v-62.582766h11.346729v62.146894q0.506174 30.862541-33.041901 30.44073a40.198636 40.198636 0 0 1-32.507606-13.540149z" fill="#FFFFFF" p-id="2353"></path><path d="M1036.949446 437.038894v-90.816016h11.346729v90.816016z" fill="#FFFFFF" p-id="2354"></path><path d="M1155.633141 437.038894v-38.061457l-45.415038-52.852981h13.427666l38.202062 44.810441 38.722295-44.810441h13.976021l-46.97574 52.852981v38.061457z" fill="#FFFFFF" p-id="2355"></path><path d="M1227.762908 437.038894v-90.816016h11.346729v90.816016z" fill="#FFFFFF" p-id="2356"></path><path d="M1260.650144 437.460706v-91.308129h11.346729l67.12427 77.7961v-77.7961h11.34673v91.308129h-11.34673l-67.12427-77.332108v77.332108z" fill="#FFFFFF" p-id="2357"></path><path d="M1417.915531 352.493809v-6.341232h90.352024v6.341232h-39.734644v84.545085h-11.346729V352.493809z" fill="#FFFFFF" p-id="2358"></path><path d="M1579.230309 438.72614q-51.095433-2.530869-53.682543-46.075876 2.587111-45.654065 54.723011-47.805303 50.069025 2.966741 53.682544 47.341311-2.066876 44.852623-54.723012 46.539868z m0-6.341233q40.775112-1.279495 42.335814-40.170515a39.25659 39.25659 0 0 0-41.323466-41.000077 40.058032 40.058032 0 0 0-42.335814 41.014138 38.553571 38.553571 0 0 0 41.309406 40.156454z" fill="#FFFFFF" p-id="2359"></path><path d="M1653.665978 437.460706v-91.308129h11.34673l67.12427 77.7961v-77.7961h11.346729v91.308129h-11.346729l-67.12427-77.332108v77.332108z" fill="#FFFFFF" p-id="2360"></path><path d="M1865.682498 372.347071h-12.907432a36.30391 36.30391 0 0 0-37.681827-21.090575 39.24253 39.24253 0 0 0-40.775112 41.421889q2.587111 37.203774 43.362223 39.734643a45.11977 45.11977 0 0 0 36.68354-12.654345v-23.663625h-38.202062v-6.763044h49.562851v33.39341a61.204849 61.204849 0 0 1-47.510035 16.071018q-53.17637-2.109057-55.76348-46.511748 2.066876-45.232253 53.17637-47.355371 38.117699-0.435872 50.054964 27.417748z" fill="#FFFFFF" p-id="2361"></path></svg>